<svg width="40" height="40" viewBox="0 0 40 40" fill="none" xmlns="http://www.w3.org/2000/svg">
<path d="M25 25H15M12.5 13.75V11.25C12.5 9.26088 13.2902 7.35322 14.6967 5.9467C16.1032 4.54018 18.0109 3.75 20 3.75V3.75C21.9891 3.75 23.8968 4.54018 25.3033 5.9467C26.7098 7.35322 27.5 9.26088 27.5 11.25V13.75M6.25 13.75C5.91848 13.75 5.60054 13.8817 5.36612 14.1161C5.1317 14.3505 5 14.6685 5 15V31.875C5 34.2375 7.0125 36.25 9.375 36.25H30.625C32.9875 36.25 35 34.3352 35 31.9727V15C35 14.6685 34.8683 14.3505 34.6339 14.1161C34.3995 13.8817 34.0815 13.75 33.75 13.75H6.25Z" stroke="black" stroke-width="2.5" stroke-linecap="round" stroke-linejoin="round"/>
</svg>
