<svg width="27" height="17" viewBox="0 0 27 17" fill="none" xmlns="http://www.w3.org/2000/svg">
<path d="M18.0454 15.7727C17.4427 15.7727 16.8646 15.5333 16.4384 15.1071C16.0122 14.6808 15.7727 14.1028 15.7727 13.5C15.7727 12.8972 16.0122 12.3192 16.4384 11.8929C16.8646 11.4667 17.4427 11.2273 18.0454 11.2273C18.6482 11.2273 19.2263 11.4667 19.6525 11.8929C20.0787 12.3192 20.3182 12.8972 20.3182 13.5C20.3182 14.1028 20.0787 14.6808 19.6525 15.1071C19.2263 15.5333 18.6482 15.7727 18.0454 15.7727V15.7727ZM6.68181 15.7727C6.07905 15.7727 5.50097 15.5333 5.07475 15.1071C4.64853 14.6808 4.40909 14.1028 4.40909 13.5C4.40909 12.8972 4.64853 12.3192 5.07475 11.8929C5.50097 11.4667 6.07905 11.2273 6.68181 11.2273C7.28458 11.2273 7.86265 11.4667 8.28887 11.8929C8.71509 12.3192 8.95454 12.8972 8.95454 13.5C8.95454 14.1028 8.71509 14.6808 8.28887 15.1071C7.86265 15.5333 7.28458 15.7727 6.68181 15.7727V15.7727Z" stroke="black" stroke-width="2" stroke-miterlimit="1.5" stroke-linecap="round" stroke-linejoin="round"/>
<path d="M15.7159 13.5H10.0909V1.68182C10.0909 1.50099 10.1627 1.32757 10.2906 1.1997C10.4185 1.07183 10.5919 1 10.7727 1H26M20.7159 13.5H23.0455C23.135 13.5 23.2237 13.4824 23.3064 13.4481C23.3891 13.4138 23.4643 13.3636 23.5276 13.3003C23.5909 13.237 23.6411 13.1618 23.6754 13.0791C23.7096 12.9964 23.7273 12.9077 23.7273 12.8182V7.25" stroke="black" stroke-width="2" stroke-linecap="round"/>
<path d="M24.8636 4.4091H20.3181" stroke="black" stroke-width="2" stroke-linecap="round" stroke-linejoin="round"/>
<path d="M10.0909 4.4091H3.71594C3.58415 4.40914 3.45519 4.44736 3.34467 4.51916C3.23415 4.59096 3.14681 4.69325 3.09321 4.81365L1.05912 9.39092C1.02037 9.47783 1.00024 9.5719 1.00003 9.66706V12.8182C1.00003 12.9077 1.01767 12.9964 1.05193 13.0791C1.0862 13.1618 1.13642 13.237 1.19973 13.3003C1.26305 13.3636 1.33821 13.4138 1.42093 13.4481C1.50365 13.4824 1.59231 13.5 1.68185 13.5H3.84094M10.0909 13.5H8.95458" stroke="black" stroke-width="2" stroke-linecap="round"/>
</svg>
