<svg width="22" height="18" viewBox="0 0 22 18" fill="none" xmlns="http://www.w3.org/2000/svg">
<path d="M11.7506 10.1567C11.7506 10.3391 11.6983 10.5178 11.5981 10.6696C11.5245 10.7833 11.4264 10.8791 11.3108 10.9497C11.1953 11.0204 11.0653 11.0642 10.9306 11.0778C10.7958 11.0915 10.6597 11.0746 10.5323 11.0285C10.405 10.9825 10.2896 10.9083 10.1948 10.8116C10.0663 10.6823 9.97888 10.518 9.9435 10.3392C9.90812 10.1605 9.92634 9.97523 9.99588 9.80678C10.0644 9.6386 10.1812 9.49448 10.3316 9.39259C10.5066 9.27421 10.7175 9.22076 10.9278 9.24152C11.138 9.26227 11.3344 9.35592 11.4829 9.50623C11.6534 9.67894 11.7498 9.91295 11.7506 10.1567V10.1567ZM16.0076 11.3791L18.7724 15.8028H13.355L12.2306 17.5994H21.9992L17.0603 9.69688L16.0084 11.3791H16.0076Z" fill="#111111"/>
<path d="M22 0H12.2314L13.3551 1.79658H18.7725L15.4477 7.11753L14.3958 8.79971L10.0191 15.8029H7.3949L6.27045 17.5994H11.0008L12.1252 15.8029H12.123L15.4477 10.4819L16.4996 8.79971L22 0Z" fill="#111111"/>
<path d="M6.16279 15.8029H3.22606L10.9993 3.36662L13.8373 7.90479L14.8877 6.22036L12.123 1.79658L10.9993 0L0 17.5994H5.03909L6.16279 15.8029Z" fill="#111111"/>
</svg>
