<svg width="20" height="16" viewBox="0 0 20 16" fill="none" xmlns="http://www.w3.org/2000/svg">
<path d="M18.8889 14C19.1721 14.0003 19.4445 14.0979 19.6504 14.2728C19.8563 14.4478 19.9803 14.687 19.9969 14.9414C20.0135 15.1958 19.9215 15.4464 19.7397 15.6418C19.5579 15.8373 19.3001 15.9629 19.0189 15.993L18.8889 16H1.11111C0.827912 15.9997 0.55552 15.9021 0.349591 15.7272C0.143662 15.5522 0.0197389 15.313 0.00314209 15.0586C-0.0134547 14.8042 0.0785273 14.5536 0.260294 14.3582C0.442061 14.1627 0.699894 14.0371 0.981111 14.007L1.11111 14H18.8889ZM18.8889 7C19.1836 7 19.4662 7.10536 19.6746 7.29289C19.8829 7.48043 20 7.73478 20 8C20 8.26522 19.8829 8.51957 19.6746 8.70711C19.4662 8.89464 19.1836 9 18.8889 9H1.11111C0.816426 9 0.533811 8.89464 0.325437 8.70711C0.117063 8.51957 0 8.26522 0 8C0 7.73478 0.117063 7.48043 0.325437 7.29289C0.533811 7.10536 0.816426 7 1.11111 7H18.8889ZM18.8889 0C19.1836 0 19.4662 0.105357 19.6746 0.292893C19.8829 0.48043 20 0.734784 20 1C20 1.26522 19.8829 1.51957 19.6746 1.70711C19.4662 1.89464 19.1836 2 18.8889 2H1.11111C0.816426 2 0.533811 1.89464 0.325437 1.70711C0.117063 1.51957 0 1.26522 0 1C0 0.734784 0.117063 0.48043 0.325437 0.292893C0.533811 0.105357 0.816426 0 1.11111 0H18.8889Z" fill="black"/>
</svg>
