<svg width="20" height="20" viewBox="0 0 20 20" fill="none" xmlns="http://www.w3.org/2000/svg">
<path d="M1.93182 19.6591L8.29546 13.2955C8.86364 13.75 9.51705 14.1098 10.2557 14.375C10.9943 14.6402 11.7803 14.7727 12.6136 14.7727C14.678 14.7727 16.425 14.058 17.8545 12.6284C19.2848 11.1981 20 9.45076 20 7.38636C20 5.32197 19.2848 3.57462 17.8545 2.14432C16.425 0.714773 14.678 0 12.6136 0C10.5492 0 8.80189 0.714773 7.37159 2.14432C5.94205 3.57462 5.22727 5.32197 5.22727 7.38636C5.22727 8.2197 5.35985 9.00568 5.625 9.74432C5.89015 10.483 6.25 11.1364 6.70455 11.7045L0.312502 18.0966C0.104169 18.3049 6.55651e-07 18.5606 6.55651e-07 18.8636C6.55651e-07 19.1667 0.113639 19.4318 0.340912 19.6591C0.549245 19.8674 0.814395 19.9716 1.13637 19.9716C1.45833 19.9716 1.72349 19.8674 1.93182 19.6591ZM12.6136 12.5C11.1932 12.5 9.98561 12.003 8.99091 11.0091C7.99697 10.0144 7.5 8.80682 7.5 7.38636C7.5 5.96591 7.99697 4.75833 8.99091 3.76364C9.98561 2.7697 11.1932 2.27273 12.6136 2.27273C14.0341 2.27273 15.2417 2.7697 16.2364 3.76364C17.2303 4.75833 17.7273 5.96591 17.7273 7.38636C17.7273 8.80682 17.2303 10.0144 16.2364 11.0091C15.2417 12.003 14.0341 12.5 12.6136 12.5Z" fill="black"/>
</svg>
