<svg width="34" height="34" viewBox="0 0 34 34" fill="none" xmlns="http://www.w3.org/2000/svg">
<path d="M18.3333 26.6667V13.3333L24.1667 19.1667L26.5333 16.8L16.6667 6.93333L6.8 16.8L9.16667 19.1667L15 13.3333V26.6667H18.3333ZM16.6667 0C18.8554 0 21.0226 0.431096 23.0447 1.26867C25.0668 2.10625 26.9041 3.33391 28.4518 4.88155C29.9994 6.4292 31.2271 8.26652 32.0647 10.2886C32.9022 12.3107 33.3333 14.478 33.3333 16.6667C33.3333 21.0869 31.5774 25.3262 28.4518 28.4518C25.3262 31.5774 21.0869 33.3333 16.6667 33.3333C14.478 33.3333 12.3107 32.9022 10.2886 32.0647C8.26652 31.2271 6.4292 29.9994 4.88155 28.4518C1.75595 25.3262 0 21.0869 0 16.6667C0 12.2464 1.75595 8.00716 4.88155 4.88155C8.00716 1.75595 12.2464 0 16.6667 0V0Z" fill="black" fill-opacity="0.44"/>
</svg>
