<svg width="20" height="20" viewBox="0 0 20 20" fill="none" xmlns="http://www.w3.org/2000/svg">
<path d="M19.8524 17.4299C18.5657 15.2114 16.5682 13.4919 14.1831 12.5495C15.3537 11.6716 16.2184 10.4475 16.6547 9.05079C17.091 7.65405 17.0768 6.15544 16.6141 4.76724C16.1513 3.37904 15.2636 2.17162 14.0765 1.31601C12.8894 0.46041 11.4632 0 9.99989 0C8.5366 0 7.11039 0.46041 5.92331 1.31601C4.73622 2.17162 3.84843 3.37904 3.3857 4.76724C2.92296 6.15544 2.90874 7.65405 3.34505 9.05079C3.78136 10.4475 4.64607 11.6716 5.81671 12.5495C3.43153 13.4919 1.43405 15.2114 0.147393 17.4299C0.00141247 17.683 -0.0380721 17.9836 0.0376251 18.2658C0.113322 18.5479 0.298001 18.7884 0.551033 18.9344C0.804065 19.0804 1.10472 19.1199 1.38687 19.0442C1.66901 18.9685 1.90953 18.7838 2.05551 18.5308C2.8607 17.1363 4.01874 15.9783 5.41327 15.1733C6.80779 14.3682 8.38966 13.9443 9.99989 13.9443C11.6101 13.9443 13.192 14.3682 14.5865 15.1733C15.981 15.9783 17.1391 17.1363 17.9443 18.5308C18.0417 18.6976 18.1809 18.8361 18.3482 18.9327C18.5155 19.0292 18.7052 19.0804 18.8983 19.0812C19.0917 19.0827 19.2818 19.032 19.4487 18.9344C19.5741 18.8622 19.684 18.766 19.7721 18.6512C19.8603 18.5365 19.9249 18.4056 19.9624 18.2658C19.9999 18.1261 20.0095 17.9804 19.9906 17.8369C19.9717 17.6935 19.9247 17.5552 19.8524 17.4299ZM5.22959 6.97197C5.22959 6.0285 5.50937 5.10621 6.03353 4.32174C6.5577 3.53727 7.30272 2.92584 8.17438 2.56479C9.04603 2.20374 10.0052 2.10927 10.9305 2.29333C11.8559 2.4774 12.7059 2.93172 13.373 3.59886C14.0401 4.266 14.4945 5.11599 14.6785 6.04133C14.8626 6.96668 14.7681 7.92583 14.4071 8.79748C14.046 9.66914 13.4346 10.4142 12.6501 10.9383C11.8657 11.4625 10.9434 11.7423 9.99989 11.7423C8.73473 11.7423 7.52138 11.2397 6.62678 10.3451C5.73218 9.45047 5.22959 8.23713 5.22959 6.97197Z" fill="black"/>
</svg>
